<?xml version="1.0" encoding="utf-8"?>
<svg xmlns="http://www.w3.org/2000/svg" viewBox="-0.25 -0.25 10.5 10.5" width="512" height="512">
  <style type="text/css" >
    <![CDATA[
      rect.space {
        fill: none;
        stroke: rgba(0, 0, 0, 0.2);
        stroke-width: 1;
        vector-effect: non-scaling-stroke;
      }

      path {
        fill: none;
        stroke: black;
        vector-effect: non-scaling-stroke;
        stroke-linecap: square;
      }
    ]]>
  </style>
  <g id="a" transform="translate(0.0 0.0) translate(0 1) scale(1 -1)">
    <rect class="space" width="0.8"  height="1"/>
    <path d="
    M 0.0 0.0
    L 0.3 1.0
    L 0.5 1.0
    L 0.8 0.0

    M 0.675 0.4
    L 0.125 0.4
  "/>
  </g>
  <g id="b" transform="translate(1.25 0.0) translate(0 1) scale(1 -1)">
    <rect class="space" width="0.6"  height="1"/>
    <path d="
    M 0.45 0.5
    L 0.6 0.4
    L 0.6 0.1
    L 0.5 0.0
    L 0.0 0.0
    L 0.0 1.0
    L 0.45 1.0
    L 0.55 0.9
    L 0.55 0.6
    L 0.45 0.5
    L 0.0 0.5
  "/>
  </g>
  <g id="c" transform="translate(2.5 0.0) translate(0 1) scale(1 -1)">
    <rect class="space" width="0.6"  height="1"/>
    <path d="
    M 0.6 0.9
    L 0.5 1.0
    L 0.2 1.0
    L 0.0 0.8
    L 0.0 0.2
    L 0.2 0.0
    L 0.5 0.0
    L 0.6 0.1
  "/>
  </g>
  <g id="d" transform="translate(3.75 0.0) translate(0 1) scale(1 -1)">
    <rect class="space" width="0.6"  height="1"/>
    <path d="
    M 0.0 0.0
    L 0.0 1.0
    L 0.45 1.0
    L 0.6 0.8
    L 0.6 0.2
    L 0.45 0.0
    L 0.0 0.0
  "/>
  </g>
  <g id="e" transform="translate(5.0 0.0) translate(0 1) scale(1 -1)">
    <rect class="space" width="0.5"  height="1"/>
    <path d="
    M 0.5 0.0
    L 0.1 0.0
    L 0.0 0.12
    L 0.0 0.88
    L 0.1 1.0
    L 0.5 1.0

    M 0.0 0.5
    L 0.4 0.5
  "/>
  </g>
  <g id="f" transform="translate(6.25 0.0) translate(0 1) scale(1 -1)">
    <rect class="space" width="0.5"  height="1"/>
    <path d="
    M 0.0 0.0
    L 0.0 0.88
    L 0.1 1.0
    L 0.5 1.0

    M 0.0 0.5
    L 0.4 0.5
  "/>
  </g>
  <g id="g" transform="translate(7.5 0.0) translate(0 1) scale(1 -1)">
    <rect class="space" width="0.8"  height="1"/>
    <path d="
    M 0.5 0.5
    L 0.8 0.5
    L 0.8 0.2
    L 0.6 0.0
    L 0.2 0.0
    L 0.0 0.2
    L 0.0 0.8
    L 0.2 1.0
    L 0.6 1.0
    L 0.7 0.9

  "/>
  </g>
  <g id="h" transform="translate(8.75 0.0) translate(0 1) scale(1 -1)">
    <rect class="space" width="0.6"  height="1"/>
    <path d="
    M 0.0 0.0
    L 0.0 1.0

    M 0.0 0.5
    L 0.6 0.5

    M 0.6 0.0
    L 0.6 1.0
  "/>
  </g>
  <g id="i" transform="translate(0.0 1.25) translate(0 1) scale(1 -1)">
    <rect class="space" width="0.4"  height="1"/>
    <path d="
    M 0.2 0.0
    L 0.2 1.0

    M 0.0 0.0
    L 0.4 0.0

    M 0.0 1.0
    L 0.4 1.0
  "/>
  </g>
  <g id="j" transform="translate(1.25 1.25) translate(0 1) scale(1 -1)">
    <rect class="space" width="0.2"  height="1"/>
    <path d="
    M 0.0 1.0
    L 0.2 1.0
    L 0.2 0.0
    L 0.1 -0.1
    L 0.0 -0.1
  "/>
  </g>
  <g id="k" transform="translate(2.5 1.25) translate(0 1) scale(1 -1)">
    <rect class="space" width="0.6"  height="1"/>
    <path d="
    M 0.0 0.0
    L 0.0 1.0

    M 0.0 0.4
    L 0.55 1.0

    M 0.2 0.6
    L 0.6 0.0
  "/>
  </g>
  <g id="l" transform="translate(3.75 1.25) translate(0 1) scale(1 -1)">
    <rect class="space" width="0.6"  height="1"/>
    <path d="
    M 0.6 0.0
    L 0.0 0.0
    L 0.0 1.0
  "/>
  </g>
  <g id="m" transform="translate(5.0 1.25) translate(0 1) scale(1 -1)">
    <rect class="space" width="0.9"  height="1"/>
    <path d="
    M 0.0 0.0
    L 0.0 1.0
    L 0.1 1.0
    L 0.4 0.0
    L 0.5 0.0
    L 0.8 1.0
    L 0.9 1.0
    L 0.9 0.0
  "/>
  </g>
  <g id="n" transform="translate(6.25 1.25) translate(0 1) scale(1 -1)">
    <rect class="space" width="0.6"  height="1"/>
    <path d="
    M 0.0 0.0
    L 0.0 1.0
    L 0.1 1.0
    L 0.5 0.0
    L 0.6 0.0
    L 0.6 1.0
  "/>
  </g>
  <g id="o" transform="translate(7.5 1.25) translate(0 1) scale(1 -1)">
    <rect class="space" width="0.8"  height="1"/>
    <path d="
    M 0.2 0.0
    L 0.0 0.2
    L 0.0 0.8
    L 0.2 1.0
    L 0.6 1.0
    L 0.8 0.8
    L 0.8 0.2
    L 0.6 0.0
    L 0.2 0.0
  "/>
  </g>
  <g id="p" transform="translate(8.75 1.25) translate(0 1) scale(1 -1)">
    <rect class="space" width="0.6"  height="1"/>
    <path d="
    M 0.0 0.0
    L 0.0 1.0
    L 0.5 1.0
    L 0.6 0.9
    L 0.6 0.6
    L 0.5 0.5
    L 0.0 0.5
  "/>
  </g>
  <g id="q" transform="translate(0.0 2.5) translate(0 1) scale(1 -1)">
    <rect class="space" width="0.9"  height="1"/>
    <path d="
    M 0.2 0.0
    L 0.0 0.2
    L 0.0 0.8
    L 0.2 1.0
    L 0.6 1.0
    L 0.8 0.8
    L 0.8 0.2
    L 0.6 0.0
    L 0.2 0.0

    M 0.7 0.1
    L 0.9 -0.1
  "/>
  </g>
  <g id="r" transform="translate(1.25 2.5) translate(0 1) scale(1 -1)">
    <rect class="space" width="0.6"  height="1"/>
    <path d="
    M 0.0 0.0
    L 0.0 1.0
    L 0.5 1.0
    L 0.6 0.9
    L 0.6 0.6
    L 0.5 0.5
    L 0.0 0.5

    M 0.4 0.5
    L 0.6 0.0
  "/>
  </g>
  <g id="s" transform="translate(2.5 2.5) translate(0 1) scale(1 -1)">
    <rect class="space" width="0.6"  height="1"/>
    <path d="
    M 0.0 0.0
    L 0.4 0.0
    L 0.6 0.15
    L 0.6 0.4
    L 0.0 0.65
    L 0.0 0.85
    L 0.2 1.0
    L 0.55 1.0
  "/>
  </g>
  <g id="t" transform="translate(3.75 2.5) translate(0 1) scale(1 -1)">
    <rect class="space" width="0.6"  height="1"/>
    <path d="
    M 0.3 0.0
    L 0.3 1.0

    M 0.0 1.0
    L 0.6 1.0
  "/>
  </g>
  <g id="u" transform="translate(5.0 2.5) translate(0 1) scale(1 -1)">
    <rect class="space" width="0.6"  height="1"/>
    <path d="
    M 0.0 1.0
    L 0.0 0.1
    L 0.1 0.0
    L 0.5 0.0
    L 0.6 0.1
    L 0.6 1.0
  "/>
  </g>
  <g id="v" transform="translate(6.25 2.5) translate(0 1) scale(1 -1)">
    <rect class="space" width="0.6"  height="1"/>
    <path d="
    M 0.0 1.0
    L 0.25 0.0
    L 0.35 0.0
    L 0.6 1.0
  "/>
  </g>
  <g id="w" transform="translate(7.5 2.5) translate(0 1) scale(1 -1)">
    <rect class="space" width="0.9"  height="1"/>
    <path d="
    M 0.0 1.0
    L 0.1 0.0
    L 0.2 0.0
    L 0.4 1.0
    L 0.5 1.0
    L 0.7 0.0
    L 0.8 0.0
    L 0.9 1.0
  "/>
  </g>
  <g id="x" transform="translate(8.75 2.5) translate(0 1) scale(1 -1)">
    <rect class="space" width="0.6"  height="1"/>
    <path d="
    M 0.0 0.0
    L 0.6 1.0

    M 0.0 1.0
    L 0.6 0.0
  "/>
  </g>
  <g id="y" transform="translate(0.0 3.75) translate(0 1) scale(1 -1)">
    <rect class="space" width="0.6"  height="1"/>
    <path d="
    M 0.0 1.0
    L 0.2 0.4
    L 0.4 0.4
    L 0.6 1.0

    M 0.3 0.4
    L 0.3 0.0
  "/>
  </g>
  <g id="z" transform="translate(1.25 3.75) translate(0 1) scale(1 -1)">
    <rect class="space" width="0.6"  height="1"/>
    <path d="
    M 0.0 1.0
    L 0.6 1.0
    L 0.6 0.8
    L 0.0 0.2
    L 0.0 0.0
    L 0.6 0.0
  "/>
  </g>
  <g id="0" transform="translate(2.5 3.75) translate(0 1) scale(1 -1)">
    <rect class="space" width="0.55"  height="1"/>
    <path d="
    M 0.0 0.9
    L 0.1 1.0
    L 0.4 1.0
    L 0.5 0.9
    L 0.5 0.1
    L 0.4 0.0
    L 0.1 0.0
    L 0.0 0.1
    L 0.0 0.9

    M 0.0 0.1
    L 0.5 0.9
  "/>
  </g>
  <g id="1" transform="translate(3.75 3.75) translate(0 1) scale(1 -1)">
    <rect class="space" width="0.55"  height="1"/>
    <path d="
    M 0.0 0.9
    L 0.3 1.0
    L 0.3 0.0
  "/>
  </g>
  <g id="2" transform="translate(5.0 3.75) translate(0 1) scale(1 -1)">
    <rect class="space" width="0.55"  height="1"/>
    <path d="
    M 0.55 0.0
    L 0.0 0.0
    L 0.0 0.3
    L 0.5 0.65
    L 0.5 0.9
    L 0.4 1.0
    L 0.1 1.0
    L 0.0 0.9
  "/>
  </g>
  <g id="3" transform="translate(6.25 3.75) translate(0 1) scale(1 -1)">
    <rect class="space" width="0.55"  height="1"/>
    <path d="
    M 0.0 0.9
    L 0.1 1.0
    L 0.4 1.0
    L 0.5 0.9
    L 0.5 0.7
    L 0.4 0.6
    L 0.2 0.6

    M 0.4 0.6
    L 0.5 0.5
    L 0.5 0.1
    L 0.4 0.0
    L 0.1 0.0
    L 0.0 0.1
  "/>
  </g>
  <g id="4" transform="translate(7.5 3.75) translate(0 1) scale(1 -1)">
    <rect class="space" width="0.55"  height="1"/>
    <path d="
    M 0.55 0.3
    L 0.0 0.3
    L 0.0 0.35
    L 0.3 1.0
    L 0.4 1.0
    L 0.4 0.0
  "/>
  </g>
  <g id="5" transform="translate(8.75 3.75) translate(0 1) scale(1 -1)">
    <rect class="space" width="0.55"  height="1"/>
    <path d="
    M 0.45 1.0
    L 0.1 1.0
    L 0.0 0.55
    L 0.05 0.5
    L 0.4 0.5
    L 0.5 0.4
    L 0.5 0.1
    L 0.5 0.1
    L 0.4 0.0
    L 0.1 0.0
    L 0.0 0.1
  "/>
  </g>
  <g id="6" transform="translate(0.0 5.0) translate(0 1) scale(1 -1)">
    <rect class="space" width="0.55"  height="1"/>
    <path d="
    M 0.5 0.9
    L 0.4 1.0
    L 0.1 1.0
    L 0.0 0.9
    L 0.0 0.1
    L 0.1 0.0
    L 0.4 0.0
    L 0.5 0.1
    L 0.5 0.4
    L 0.4 0.5
    L 0.2 0.5
    L 0.0 0.4
  "/>
  </g>
  <g id="7" transform="translate(1.25 5.0) translate(0 1) scale(1 -1)">
    <rect class="space" width="0.55"  height="1"/>
    <path d="
    M 0.0 1.0
    L 0.4 1.0
    L 0.15 0.0
  "/>
  </g>
  <g id="8" transform="translate(2.5 5.0) translate(0 1) scale(1 -1)">
    <rect class="space" width="0.55"  height="1"/>
    <path d="
    M 0.1 0.5
    L 0.0 0.6
    L 0.0 0.9
    L 0.1 1.0
    L 0.4 1.0
    L 0.5 0.9
    L 0.5 0.6
    L 0.4 0.5
    L 0.1 0.5
    L 0.0 0.4
    L 0.0 0.1
    L 0.1 0.0
    L 0.4 0.0
    L 0.5 0.1
    L 0.5 0.4
    L 0.4 0.5
  "/>
  </g>
  <g id="9" transform="translate(3.75 5.0) translate(0 1) scale(1 -1)">
    <rect class="space" width="0.55"  height="1"/>
    <path d="
    M 0.5 0.6
    L 0.3 0.5
    L 0.1 0.5
    L 0.0 0.6
    L 0.0 0.9
    L 0.1 1.0
    L 0.4 1.0
    L 0.5 0.9
    L 0.5 0.1
    L 0.4 0.0
    L 0.1 0.0
    L 0.0 0.1
  "/>
  </g>
  <g id=":" transform="translate(5.0 5.0) translate(0 1) scale(1 -1)">
    <rect class="space" width="0.6"  height="1"/>
    <path d="
    M 0.3 0.6
    L 0.3 0.7

    M 0.3 0.4
    L 0.3 0.3
  "/>
  </g>
  <g id=" " transform="translate(6.25 5.0) translate(0 1) scale(1 -1)">
    <rect class="space" width="0.3"  height="1"/>
    <path d="
  "/>
  </g>
  <g id="~" transform="translate(7.5 5.0) translate(0 1) scale(1 -1)">
    <rect class="space" width="1.0"  height="1"/>
    <path d="
    M 0.2 0.5
    L 0.25 0.55
    L 0.45 0.55
    L 0.55 0.45
    L 0.75 0.45
    L 0.8 0.5
  "/>
  </g>
  <g id="/" transform="translate(8.75 5.0) translate(0 1) scale(1 -1)">
    <rect class="space" width="1.0"  height="1"/>
    <path d="
    M 0.2 -0.1
    L 0.8 1.1
  "/>
  </g>
  <g id="-" transform="translate(0.0 6.25) translate(0 1) scale(1 -1)">
    <rect class="space" width="1.0"  height="1"/>
    <path d="
    M 0.2 0.5
    L 0.8 0.5
  "/>
  </g>
  <g id="_" transform="translate(1.25 6.25) translate(0 1) scale(1 -1)">
    <rect class="space" width="1.0"  height="1"/>
    <path d="
    M 0.1 0.0
    L 0.9 0.0
  "/>
  </g>
  <g id="&amp;" transform="translate(2.5 6.25) translate(0 1) scale(1 -1)">
    <rect class="space" width="0.8"  height="1"/>
    <path d="
    M 0.8 0.0
    L 0.65 0.0
    L 0.1 0.6
    L 0.1 0.8
    L 0.2 0.9
    L 0.3 0.9
    L 0.4 0.8
    L 0.4 0.6
    L 0.0 0.3
    L 0.0 0.1
    L 0.1 0.0
    L 0.3 0.0
    L 0.7 0.35
    L 0.8 0.35
  "/>
  </g>
  <g id="+" transform="translate(3.75 6.25) translate(0 1) scale(1 -1)">
    <rect class="space" width="1.0"  height="1"/>
    <path d="
    M 0.2 0.5
    L 0.8 0.5

    M 0.5 0.8
    L 0.5 0.2
  "/>
  </g>
  <g id="*" transform="translate(5.0 6.25) translate(0 1) scale(1 -1)">
    <rect class="space" width="1.0"  height="1"/>
    <path d="
    M 0.25 0.35
    L 0.75 0.65

    M 0.25 0.65
    L 0.75 0.35

    M 0.5 0.8
    L 0.5 0.2
  "/>
  </g>
  <g id="&gt;" transform="translate(6.25 6.25) translate(0 1) scale(1 -1)">
    <rect class="space" width="1.0"  height="1"/>
    <path d="
    M 0.2 0.8
    L 0.8 0.55
    L 0.8 0.45
    L 0.2 0.2
  "/>
  </g>
  <g id="&lt;" transform="translate(7.5 6.25) translate(0 1) scale(1 -1)">
    <rect class="space" width="1.0"  height="1"/>
    <path d="
    M 0.8 0.8
    L 0.2 0.55
    L 0.2 0.45
    L 0.8 0.2
  "/>
  </g>
  <g id="[" transform="translate(8.75 6.25) translate(0 1) scale(1 -1)">
    <rect class="space" width="1.0"  height="1"/>
    <path d="
    M 0.8 1.2
    L 0.6 1.2
    L 0.6 -0.2
    L 0.8 -0.2
  "/>
  </g>
  <g id="]" transform="translate(0.0 7.5) translate(0 1) scale(1 -1)">
    <rect class="space" width="1.0"  height="1"/>
    <path d="
    M 0.2 1.2
    L 0.4 1.2
    L 0.4 -0.2
    L 0.2 -0.2
  "/>
  </g>
  <g id="(" transform="translate(1.25 7.5) translate(0 1) scale(1 -1)">
    <rect class="space" width="1.0"  height="1"/>
    <path d="
    M 0.8 1.2
    L 0.6 1.1
    L 0.6 -0.1
    L 0.8 -0.2
  "/>
  </g>
  <g id=")" transform="translate(2.5 7.5) translate(0 1) scale(1 -1)">
    <rect class="space" width="1.0"  height="1"/>
    <path d="
    M 0.2 1.2
    L 0.4 1.1
    L 0.4 -0.1
    L 0.2 -0.2
  "/>
  </g>
  <g id="{" transform="translate(3.75 7.5) translate(0 1) scale(1 -1)">
    <rect class="space" width="1.0"  height="1"/>
    <path d="
    M 0.8 1.2
    L 0.6 1.1
    L 0.6 0.6
    L 0.5 0.5
    L 0.6 0.4
    L 0.6 -0.1
    L 0.8 -0.2
  "/>
  </g>
  <g id="}" transform="translate(5.0 7.5) translate(0 1) scale(1 -1)">
    <rect class="space" width="1.0"  height="1"/>
    <path d="
    M 0.2 1.2
    L 0.4 1.1
    L 0.4 0.6
    L 0.5 0.5
    L 0.4 0.4
    L 0.4 -0.1
    L 0.2 -0.2
  "/>
  </g>
  <g id="," transform="translate(6.25 7.5) translate(0 1) scale(1 -1)">
    <rect class="space" width="0.6"  height="1"/>
    <path d="
    M 0.3 0.1
    L 0.3 0.0
    L 0.2 -0.1
  "/>
  </g>
  <g id="!" transform="translate(7.5 7.5) translate(0 1) scale(1 -1)">
    <rect class="space" width="0.6"  height="1"/>
    <path d="
    M 0.3 1.0
    L 0.3 0.3

    M 0.3 0.1
    L 0.3 0.0
  "/>
  </g>
  <g id="?" transform="translate(8.75 7.5) translate(0 1) scale(1 -1)">
    <rect class="space" width="0.6"  height="1"/>
    <path d="
    M 0.1 0.9
    L 0.2 1.0
    L 0.4 1.0
    L 0.5 0.9
    L 0.5 0.6
    L 0.3 0.5
    L 0.3 0.3

    M 0.3 0.1
    L 0.3 0.0
  "/>
  </g>
  <g id="." transform="translate(0.0 8.75) translate(0 1) scale(1 -1)">
    <rect class="space" width="0.6"  height="1"/>
    <path d="
    M 0.3 0.0
    L 0.3 0.1
  "/>
  </g>
  <g id="'" transform="translate(1.25 8.75) translate(0 1) scale(1 -1)">
    <rect class="space" width="0.6"  height="1"/>
    <path d="
    M 0.3 1.0
    L 0.3 0.8
  "/>
  </g>
  <g id="&quot;" transform="translate(2.5 8.75) translate(0 1) scale(1 -1)">
    <rect class="space" width="0.6"  height="1"/>
    <path d="
    M 0.2 1.1
    L 0.2 0.9

    M 0.4 1.1
    L 0.4 0.9
  "/>
  </g>
  <g id="%" transform="translate(3.75 8.75) translate(0 1) scale(1 -1)">
    <rect class="space" width="1.0"  height="1"/>
    <path d="
    M 0.1 0.7
    L 0.1 0.9
    L 0.2 1.0
    L 0.3 1.0
    L 0.4 0.9
    L 0.4 0.7
    L 0.3 0.6
    L 0.2 0.6
    L 0.1 0.7

    M 0.2 -0.1
    L 0.8 1.1

    M 0.7 0.0
    L 0.6 0.1
    L 0.6 0.3
    L 0.7 0.4
    L 0.8 0.4
    L 0.9 0.3
    L 0.9 0.1
    L 0.8 0.0
    L 0.7 0.0
  "/>
  </g>
  <g id="⨉" transform="translate(5.0 8.75) translate(0 1) scale(1 -1)">
    <rect class="space" width="1.0"  height="1"/>
    <path d="
    M 0.2 0.8
    L 0.8 0.2

    M 0.8 0.8
    L 0.2 0.2
  "/>
  </g>
</svg>
